<?xml version="1.0" standalone="no"?>
<!DOCTYPE svg PUBLIC "-//W3C//DTD SVG 20010904//EN"
 "http://www.w3.org/TR/2001/REC-SVG-20010904/DTD/svg10.dtd">
<svg version="1.0" xmlns="http://www.w3.org/2000/svg"
 width="96.000000pt" height="96.000000pt" viewBox="0 0 96.000000 96.000000"
 preserveAspectRatio="xMidYMid meet">

<g transform="translate(0.000000,96.000000) scale(0.100000,-0.100000)"
fill="#000000" stroke="none">
<path d="M60 870 l0 -30 64 0 c43 0 67 -5 75 -14 7 -8 23 -119 37 -248 29
-278 35 -303 74 -323 30 -15 30 -15 10 -35 -25 -25 -25 -55 0 -80 25 -25 55
-25 80 0 25 25 25 55 0 80 -20 20 -20 20 110 20 130 0 130 0 110 -20 -25 -25
-25 -55 0 -80 25 -25 55 -25 80 0 25 25 25 55 0 80 -20 20 -20 20 0 20 16 0
20 7 20 30 l0 30 -190 0 c-177 0 -190 1 -200 19 -21 40 -16 41 195 41 l205 0
29 28 c27 24 33 41 59 180 l29 152 -32 0 -31 0 -23 -127 c-36 -194 -5 -173
-244 -173 l-204 0 -17 173 c-24 234 -29 257 -61 284 -22 20 -38 23 -101 23
l-74 0 0 -30z"/>
<path d="M540 782 l0 -62 -60 0 -60 0 0 -30 c0 -30 0 -30 60 -30 l59 0 3 -57
3 -58 72 75 73 76 -75 74 -75 74 0 -62z"/>
</g>
</svg>
